# xmcd CD database file
#
# Track frame offsets:
#	150
#	18963
#	35395
#	54658
#	71213
#	84560
#	103113
#
# Disc length: 1585 seconds
#
# Revision: 0
# Processed by: cddbd v1.5.1PL0 Copyright (c) Steve Scherf et al.
# Submitted via: CDex 1.51
#
DISCID=58062f07
DTITLE=ELIKA - Solo
DYEAR=1991
DGENRE=Pop
TTITLE0=SMOKE GETS IN YOUR EYES
TTITLE1=RAINY DAYS AND MONDAYS
TTITLE2=WE'RE ALL ALONE
TTITLE3=TIE A YELLOW RIBBON ROUND THE OLE OAK TREE
TTITLE4=YOU CAN'T HURRY LOVE
TTITLE5=ALL THE TIME
TTITLE6=WHEN YOU WISH UPON A STAR
EXTD=YEAR: 1991
EXTT0=
EXTT1=
EXTT2=
EXTT3=
EXTT4=
EXTT5=
EXTT6=
PLAYORDER=
